# xmcd
#
# Track frame offsets: 
#        150
#        13837
#        26395
#        40035
#        54655
#        69417
#        83615
#        98177
#        111957
#        124395
#        139082
#        152875
#        165827
#        178610
#        190525
#        202850
#        215425
#        228007
#        240355
#        251945
#        265057
#        276755
#        289972
#        303752
#        316492
#
# Disc length: 4405 seconds
#
# Revision: 0
# Processed by: cddbd v1.5.2PL0 Copyright (c) Steve Scherf et al.
# Submitted via: ExactAudioCopy v1.0b3
#
DISCID=50113319
DTITLE=Peetie Wheatstraw - Complete Recorded Works In Chronological Or
DTITLE=der Vol. 3 1935-1936
DYEAR=1994
DGENRE=Blues
TTITLE0=Good Hustler Blues
TTITLE1=Cocktail Man Blues
TTITLE2=King Spider Blues
TTITLE3=Hi-De-Ho Woman Blues
TTITLE4=Sorrow Hearted Blues
TTITLE5=Up The Road Blues
TTITLE6=Last Dime Blues
TTITLE7=King Of Spades
TTITLE8=Johnnie Blues
TTITLE9=Santa Claus Blues
TTITLE10=Lonesome Lonesome Blues
TTITLE11=No Good Woman (Fighting Blues) duet w. Amos Easton a.k.a. Bum
TTITLE11=ble Bee Slim
TTITLE12=First And Last Blues
TTITLE13=True Blue Woman
TTITLE14=Kidnapper's Blues (c-1259)
TTITLE15=Sweet Home Blues (take 1)
TTITLE16=Sweet Home Blues (take 2)
TTITLE17=Good Woman Blues
TTITLE18=Working Man (Doing The Best I Can)
TTITLE19=Low Down Rascal
TTITLE20=When I Get My Bonus (Things Will Be Coming My Way)
TTITLE21=Coon Can Shorty
TTITLE22=Meat Cutter Blues
TTITLE23=The First Shall Be Last And The Last Shall Be First
TTITLE24=Kidnappers Blues (60527)
EXTD=
EXTT0=
EXTT1=
EXTT2=
EXTT3=
EXTT4=
EXTT5=
EXTT6=
EXTT7=
EXTT8=
EXTT9=
EXTT10=
EXTT11=
EXTT12=
EXTT13=
EXTT14=
EXTT15=
EXTT16=
EXTT17=
EXTT18=
EXTT19=
EXTT20=
EXTT21=
EXTT22=
EXTT23=
EXTT24=
PLAYORDER=
